<svg xmlns="http://www.w3.org/2000/svg" viewBox="0 0 400 300" width="400" height="300" role="img" aria-label="">
  <rect width="400" height="300" fill="#ffffff"/>
  <g transform="translate(60, 200)">
    <rect x="0" y="0" width="56" height="40" fill="#fff9e6" stroke="#222" stroke-width="2"/>
    <text x="28" y="26" text-anchor="middle" font-family="sans-serif" font-size="14" font-weight="bold">1</text>
  </g>
  <g transform="translate(130, 170)">
    <rect x="0" y="0" width="56" height="40" fill="#e8f4fc" stroke="#222" stroke-width="2"/>
    <text x="28" y="26" text-anchor="middle" font-family="sans-serif" font-size="14" font-weight="bold">2</text>
  </g>
  <g transform="translate(200, 140)">
    <rect x="0" y="0" width="56" height="40" fill="#f0fff4" stroke="#222" stroke-width="2"/>
    <text x="28" y="26" text-anchor="middle" font-family="sans-serif" font-size="14" font-weight="bold">3</text>
  </g>
  <g transform="translate(270, 110)">
    <rect x="0" y="0" width="56" height="40" fill="#fde8d4" stroke="#222" stroke-width="2"/>
    <text x="28" y="26" text-anchor="middle" font-family="sans-serif" font-size="14" font-weight="bold">4</text>
  </g>
  <g transform="translate(310, 80)">
    <rect x="0" y="0" width="56" height="40" fill="#fce7f3" stroke="#222" stroke-width="2"/>
    <text x="28" y="26" text-anchor="middle" font-family="sans-serif" font-size="14" font-weight="bold">5</text>
  </g>
  <path d="M116 200 L130 190" stroke="#222" stroke-width="2" fill="none"/>
  <path d="M186 170 L200 160" stroke="#222" stroke-width="2" fill="none"/>
  <path d="M256 140 L270 130" stroke="#222" stroke-width="2" fill="none"/>
  <path d="M326 110 L310 100" stroke="#222" stroke-width="2" fill="none"/>
</svg>
